# xmcd
#
# Track frame offsets:
#	182
#	17985
#	34425
#	49622
#	67062
#	83372
#	98172
#	109372
#	125267
#	140890
#
# Disc length: 2120 seconds
#
# Revision: 1
# Processed by: cddbd v1.4PL0 Copyright (c) Steve Scherf et al.
# Submitted via: audiograbber 1.81.03
#
DISCID=8c08460a
DTITLE=Eddy Mitchell - Racines
DYEAR=1984
DGENRE=
TTITLE0=Comme quand j'étais môme
TTITLE1=Mon clip préféré
TTITLE2=Le blues du blanc
TTITLE3=L'idole chante au dessert
TTITLE4=Rupture en V.H.S.
TTITLE5=Nashville ou Belleville?
TTITLE6=Ciné, rock et bandes dessinées (hotdamn)
TTITLE7=Pourquoi m'laisse-tu pas tranquille, Lucille? (Lucille)
TTITLE8=Un cheque en bois... C'est drôle!
TTITLE9=Mes souvenirs, mes seize ans
EXTD=
EXTT0=
EXTT1=
EXTT2=
EXTT3=
EXTT4=
EXTT5=
EXTT6=
EXTT7=
EXTT8=
EXTT9=
PLAYORDER=
